v 1 1 1
vn 0.3333333433 0.6666666865 0.6666666865
v -1 1 1
vn -0.8164966106 0.4082483053 0.4082483053
v -1 -1 1
vn -0.3333333433 -0.6666666865 0.6666666865
v 1 -1 1
vn 0.8164966106 -0.4082483053 0.4082483053
v 1 -1 -1
vn 0.3333333433 -0.6666666865 -0.6666666865
v -1 -1 -1
vn -0.8164966106 -0.4082483053 -0.4082483053
v -1 1 -1
vn -0.3333333433 0.6666666865 -0.6666666865
v 1 1 -1
vn 0.8164966106 0.4082483053 -0.4082483053
# mm_gid 1
g mmGroup1
f 1//1 2//2 3//3 
f 1//1 3//3 4//4 
# mm_gid 2
g mmGroup2
f 5//5 4//4 3//3 
f 5//5 3//3 6//6 
# mm_gid 3
g mmGroup3
f 6//6 3//3 2//2 
f 6//6 2//2 7//7 
# mm_gid 4
g mmGroup4
f 7//7 8//8 5//5 
f 7//7 5//5 6//6 
# mm_gid 5
g mmGroup5
f 8//8 1//1 4//4 
f 8//8 4//4 5//5 
# mm_gid 6
g mmGroup6
f 7//7 2//2 1//1 
f 7//7 1//1 8//8 
